<svg width="127" height="23" viewBox="0 0 127 23" fill="none" xmlns="http://www.w3.org/2000/svg">
  <path
    d="M5.96397 12.2725V21.9353H1.58229V12.2725H0V8.87588H1.58229V6.29919C1.58229 4.83531 1.73452 3.16632 3.10372 1.76097C3.98611 0.852887 5.23369 0.267578 6.90735 0.267578C7.88097 0.267578 8.672 0.443172 9.40252 0.70656V4.39608C8.91571 4.10318 8.27655 3.89833 7.72875 3.89833C7.05946 3.89833 6.63339 4.19122 6.45079 4.42534C5.96397 5.0404 5.96397 6.06519 5.96397 6.67988V8.876H9.4329V12.2726H5.96397V12.2725Z"
    fill="#ff4f00" />
  <path
    d="M21.9873 20.2651C20.9645 21.4364 19.2259 22.3737 17.0012 22.3737C14.7768 22.3737 13.038 21.4365 12.0152 20.2651C10.8647 18.9473 10.3021 17.0734 10.3021 15.4047C10.3021 13.7356 10.8647 11.8617 12.0152 10.5439C13.038 9.37265 14.7768 8.43579 17.0012 8.43579C19.2259 8.43579 20.9645 9.37253 21.9873 10.5439C23.138 11.8617 23.7004 13.7358 23.7004 15.4047C23.7004 17.0735 23.138 18.9475 21.9873 20.2651ZM14.9303 12.9449C14.3933 13.5598 14.0865 14.3502 14.0865 15.4046C14.0865 16.6051 14.4955 17.3663 14.9303 17.864C15.3904 18.391 16.0553 18.8011 17.0268 18.8011C17.8451 18.8011 18.5356 18.479 19.0726 17.864C19.6093 17.249 19.9162 16.4587 19.9162 15.4046C19.9162 14.3502 19.6093 13.5598 19.0726 12.9449C18.5356 12.3302 17.8451 12.0081 17.0014 12.0081C16.1576 12.0081 15.4671 12.3302 14.9304 12.9449H14.9303Z"
    fill="#ff4f00" />
  <path
    d="M29.9398 14.8194L25.414 8.87524H30.1187L32.241 11.8913L34.3633 8.87524H39.068L34.5423 14.8194L40.1162 21.9347H35.3603L32.241 17.7182L29.1216 21.9347H24.3657L29.9398 14.8194Z"
    fill="#ff4f00" />
  <path
    d="M41.599 8.876H45.2808V10.3987C46.2269 8.75919 47.6076 8.55383 48.477 8.55383C48.9629 8.55383 49.8578 8.61261 50.6249 9.13976C51.2129 9.52033 51.6988 10.1647 52.0055 10.9553C52.2869 10.4279 52.7215 9.81322 53.4631 9.28608C54.2557 8.72955 54.9972 8.55383 55.8921 8.55383C57.273 8.55383 58.3979 9.02244 59.0883 9.78408C60.1878 10.9846 60.2646 12.7412 60.2646 13.6785V21.9355H56.5826V15.3179C56.5826 14.6445 56.5826 13.4731 56.0966 12.7704C55.7898 12.3314 55.3043 12.0676 54.7672 12.0676C54.1534 12.0676 53.6419 12.3898 53.3352 12.8584C52.8493 13.5612 52.7727 14.5859 52.7727 15.4351V21.9353H49.0909V15.1421C49.0909 14.2636 49.0653 13.2387 48.5028 12.5945C48.1193 12.1556 47.659 12.0675 47.2755 12.0675C46.7895 12.0675 46.3551 12.2141 45.997 12.5945C45.3066 13.3561 45.281 14.8199 45.281 15.2593V21.9353H41.5992V8.87588L41.599 8.876Z"
    fill="#ff4f00" />
  <path
    d="M65.2512 0.853394C66.453 0.853394 67.3991 1.93707 67.3991 3.31328C67.3991 4.68936 66.453 5.77266 65.2512 5.77266C64.0495 5.77266 63.1035 4.68936 63.1035 3.31328C63.1035 1.93707 64.0495 0.853394 65.2512 0.853394ZM67.3991 9.12736V22.1868L63.4104 21.9358V8.87639L67.3991 9.12736Z"
    fill="#ff4f00" />
  <path
    d="M70.2108 8.87536H73.8926V10.4273C75.0178 8.78768 76.3474 8.52393 77.4211 8.52393C78.4184 8.52393 79.7225 8.7289 80.6939 9.84172C81.768 11.0715 81.8445 12.6233 81.8445 13.6778V21.9348H78.1627V15.2297C78.1627 14.3805 78.1374 13.2969 77.5492 12.6234C77.2678 12.3012 76.8076 12.0378 76.1429 12.0378C75.3757 12.0378 74.8897 12.3893 74.6086 12.7406C73.9948 13.4434 73.8926 14.3805 73.8926 15.2297V21.9348H70.2108V8.87536Z"
    fill="#ff4f00" />
  <path
    d="M97.1354 21.9356H93.4536V20.3545C92.8911 21.2912 91.8682 22.3749 89.8487 22.3749C88.1607 22.3749 86.9337 21.7599 85.9365 20.5885C84.7603 19.2414 84.1467 17.3676 84.1467 15.3471C84.1467 13.1806 84.8368 11.3942 85.9365 10.1937C86.9337 9.11035 88.3399 8.43689 89.8998 8.43689C91.1526 8.43689 92.5333 8.90549 93.4537 10.3401V0.5896H97.1355V21.9353L97.1354 21.9356ZM88.8256 12.9463C88.2886 13.5321 87.9307 14.3813 87.9307 15.4353C87.9307 16.4017 88.2886 17.2504 88.8256 17.8363C89.388 18.4514 90.1042 18.7439 90.7435 18.7439C91.4334 18.7439 92.2519 18.4218 92.84 17.7779C93.2748 17.3093 93.6838 16.5187 93.6838 15.4355C93.6838 14.3225 93.3001 13.5614 92.8653 13.0344C92.2776 12.3316 91.5871 12.068 90.7946 12.068C90.053 12.068 89.4137 12.3021 88.8256 12.9464V12.9463Z"
    fill="#ff4f00" />
  <rect width="50" height="23" x="100" y="0" fill="#ff4f00"></rect>
  <path
    d="M111.891 16.1369H103.376C103.376 16.8396 103.606 17.7767 104.066 18.3623C104.629 19.065 105.396 19.1822 105.958 19.1822C106.495 19.1822 107.058 19.0649 107.441 18.8015C107.493 18.7718 107.927 18.4502 108.234 17.7178L111.711 18.128C111.2 19.9723 110.177 20.9387 109.513 21.4075C108.413 22.1685 107.186 22.3738 105.907 22.3738C104.194 22.3738 102.685 22.0224 101.356 20.4997C100.359 19.3576 99.6429 17.6301 99.6429 15.4632C99.6429 13.5892 100.231 11.6568 101.382 10.3097C102.762 8.72844 104.475 8.43579 105.754 8.43579C107.032 8.43579 108.873 8.69917 110.279 10.3974C111.635 12.0373 111.891 14.0869 111.891 15.6971V16.1366V16.1369ZM108.49 13.6186C108.464 13.5013 108.285 12.6818 107.748 12.0959C107.339 11.6569 106.751 11.364 106.009 11.364C105.063 11.364 104.501 11.8034 104.143 12.2132C103.862 12.5645 103.606 13.033 103.503 13.6186H108.49Z"
    fill="white" />
  <path
    d="M126.618 21.9356H122.936V20.3545C122.373 21.2912 121.351 22.3749 119.331 22.3749C117.643 22.3749 116.416 21.7599 115.419 20.5885C114.242 19.2414 113.629 17.3676 113.629 15.3471C113.629 13.1806 114.319 11.3942 115.419 10.1937C116.416 9.11035 117.822 8.43689 119.382 8.43689C120.635 8.43689 122.016 8.90549 122.936 10.3401V0.5896H126.618V21.9353L126.618 21.9356ZM118.308 12.9463C117.771 13.5321 117.413 14.3813 117.413 15.4353C117.413 16.4017 117.771 17.2504 118.308 17.8363C118.87 18.4514 119.586 18.7439 120.226 18.7439C120.916 18.7439 121.734 18.4218 122.322 17.7779C122.757 17.3093 123.166 16.5187 123.166 15.4355C123.166 14.3225 122.782 13.5614 122.348 13.0344C121.76 12.3316 121.069 12.068 120.277 12.068C119.535 12.068 118.896 12.3021 118.308 12.9464V12.9463Z"
    fill="white" />
</svg>