<svg width="14" height="10" viewBox="0 0 14 10" fill="none" xmlns="http://www.w3.org/2000/svg">
<path fill-rule="evenodd" clip-rule="evenodd" d="M13.364 0.407334C13.5515 0.594861 13.6568 0.84917 13.6568 1.11433C13.6568 1.3795 13.5515 1.63381 13.364 1.82133L5.86867 9.31667C5.76962 9.41574 5.65202 9.49433 5.52259 9.54795C5.39316 9.60157 5.25444 9.62917 5.11434 9.62917C4.97424 9.62917 4.83552 9.60157 4.70609 9.54795C4.57666 9.49433 4.45906 9.41574 4.36001 9.31667L0.636007 5.59333C0.540497 5.50109 0.464315 5.39074 0.411906 5.26874C0.359497 5.14673 0.331911 5.01551 0.330757 4.88273C0.329603 4.74996 0.354905 4.61828 0.405186 4.49538C0.455467 4.37248 0.52972 4.26083 0.623612 4.16694C0.717505 4.07305 0.829157 3.99879 0.952053 3.94851C1.07495 3.89823 1.20663 3.87293 1.33941 3.87408C1.47219 3.87524 1.60341 3.90282 1.72541 3.95523C1.84742 4.00764 1.95776 4.08382 2.05001 4.17933L5.11401 7.24333L11.9493 0.407334C12.0422 0.314407 12.1525 0.24069 12.2738 0.190396C12.3952 0.140101 12.5253 0.114214 12.6567 0.114214C12.7881 0.114214 12.9181 0.140101 13.0395 0.190396C13.1609 0.24069 13.2711 0.314407 13.364 0.407334Z" fill="#323749"/>
</svg>
