<svg width="12" height="14" viewBox="0 0 12 14" fill="none" xmlns="http://www.w3.org/2000/svg">
<path fill-rule="evenodd" clip-rule="evenodd" d="M3.21533 1.24534C3.3038 0.979736 3.47362 0.748711 3.70073 0.58502C3.92784 0.421329 4.20071 0.333276 4.48067 0.333344H7.51933C7.79929 0.333276 8.07216 0.421329 8.29927 0.58502C8.52638 0.748711 8.6962 0.979736 8.78467 1.24534L9.14667 2.33334H11.3333C11.5101 2.33334 11.6797 2.40358 11.8047 2.52861C11.9298 2.65363 12 2.8232 12 3.00001C12 3.17682 11.9298 3.34639 11.8047 3.47141C11.6797 3.59644 11.5101 3.66668 11.3333 3.66668H10.6667V11.6667C10.6667 12.1971 10.456 12.7058 10.0809 13.0809C9.70581 13.456 9.1971 13.6667 8.66667 13.6667H3.33333C2.8029 13.6667 2.29419 13.456 1.91912 13.0809C1.54405 12.7058 1.33333 12.1971 1.33333 11.6667V3.66668H0.666667C0.489856 3.66668 0.320286 3.59644 0.195262 3.47141C0.0702379 3.34639 0 3.17682 0 3.00001C0 2.8232 0.0702379 2.65363 0.195262 2.52861C0.320286 2.40358 0.489856 2.33334 0.666667 2.33334H2.85333L3.21533 1.24534ZM4.258 2.33334L4.48067 1.66668H7.51933L7.742 2.33334H4.258Z" fill="#323749"/>
</svg>
